<!DOCTYPE svg PUBLIC "-//W3C//DTD SVG 1.1//EN" "http://www.w3.org/Graphics/SVG/1.1/DTD/svg11.dtd">
<!-- Uploaded to: SVG Repo, www.svgrepo.com, Transformed by: SVG Repo Mixer Tools -->
<svg fill="#35c9af" width="800px" height="800px" viewBox="0 0 24 24" xmlns="http://www.w3.org/2000/svg">
<g id="SVGRepo_bgCarrier" stroke-width="0"/>
<g id="SVGRepo_tracerCarrier" stroke-linecap="round" stroke-linejoin="round"/>
<g id="SVGRepo_iconCarrier">
<path d="M11,4.5a1,1,0,0,1,1-1h9a1,1,0,0,1,0,2H12A1,1,0,0,1,11,4.5Zm1,6h9a1,1,0,0,0,0-2H12a1,1,0,0,0,0,2Zm0,5h9a1,1,0,0,0,0-2H12a1,1,0,0,0,0,2Zm0,5h9a1,1,0,0,0,0-2H12a1,1,0,0,0,0,2ZM6,2A1,1,0,0,0,5,3V18.586L3.707,17.293a1,1,0,0,0-1.414,1.414l3,3a1,1,0,0,0,1.416,0l3-3a1,1,0,0,0-1.414-1.414L7,18.586V3A1,1,0,0,0,6,2Z"/>
</g>
</svg>